# xmcd
#
# Track frame offsets: 
#        150
#        6924
#        26621
#        36472
#        43656
#        53993
#        71628
#        78082
#        88057
#        106250
#        111640
#        118987
#        123451
#        149530
#        151702
#        153964
#        164502
#        176464
#        211537
#        216052
#        219486
#        225454
#        232049
#        237755
#        248303
#        266677
#        271139
#        274265
#        289145
#        297039
#        302391
#        315035
#
# Disc length: 4502 seconds
#
# Revision: 0
# Processed by: cddbd v1.5.2PL0 Copyright (c) Steve Scherf et al.
# Submitted via: ExactAudioCopy v0.95b3
#
DISCID=bd119420
DTITLE=Jimi Hendrix  - Unsurpassed Masters (Studio Reels) Volume 1
DYEAR=1900
DGENRE=
TTITLE0=Voodoo Child (Slight Return) Session
TTITLE1=Voodoo Child (Slight Return) Session
TTITLE2=Voodoo Child (Slight Return) Session
TTITLE3=Voodoo Child (Slight Return) Session
TTITLE4=Voodoo Child (Slight Return) Session
TTITLE5=Voodoo Child (Slight Return) Session
TTITLE6=Voodoo Child (Slight Return) Session
TTITLE7=Voodoo Child (Slight Return) Session
TTITLE8=Voodoo Child (Slight Return) Session
TTITLE9=Voodoo Child (Slight Return) Session
TTITLE10=Voodoo Child (Slight Return) Session
TTITLE11=Voodoo Child (Slight Return) Session
TTITLE12=Voodoo Child (Slight Return) Session
TTITLE13=Rainy Day Dream Away Session
TTITLE14=Rainy Day Dream Away Session
TTITLE15=Rainy Day Dream Away Session
TTITLE16=Rainy Day Dream Away Session
TTITLE17=Rainy Day Dream Away Session
TTITLE18=Mannish Boy Session Part One
TTITLE19=Mannish Boy Session Part One
TTITLE20=Mannish Boy Session Part One
TTITLE21=Mannish Boy Session Part One
TTITLE22=Mannish Boy Session Part One
TTITLE23=Jimi Hencrix - Mannish Boy Session Part One
TTITLE24=Mannish Boy Session Part One
TTITLE25=Mannish Boy Session Part One
TTITLE26=Mannish Boy Session Part One
TTITLE27=Mannish Boy Session Part One
TTITLE28=Mannish Boy Session Part One
TTITLE29=Mannish Boy Session Part One
TTITLE30=Mannish Boy Session Part One
TTITLE31=Mannish Boy Session Part One
EXTD=
EXTT0=
EXTT1=
EXTT2=
EXTT3=
EXTT4=
EXTT5=
EXTT6=
EXTT7=
EXTT8=
EXTT9=
EXTT10=
EXTT11=
EXTT12=
EXTT13=
EXTT14=
EXTT15=
EXTT16=
EXTT17=
EXTT18=
EXTT19=
EXTT20=
EXTT21=
EXTT22=
EXTT23=
EXTT24=
EXTT25=
EXTT26=
EXTT27=
EXTT28=
EXTT29=
EXTT30=
EXTT31=
PLAYORDER=
